<?xml version="1.0" encoding="utf-8"?>
<svg version="1.1" id="Layer_1" xmlns="http://www.w3.org/2000/svg" xmlns:xlink="http://www.w3.org/1999/xlink" x="0px" y="0px"
	 viewBox="0 0 48 48" style="enable-background:new 0 0 48 48;" xml:space="preserve">
<style type="text/css">
	.st0{fill:#E2127A;}
</style>
<path class="st0" d="M20.7,0L20.7,0C13.5,0.5,6.6,4.3,2.3,10.7l0,0c-0.4,2.8-0.7,6.9-0.7,12.8c0.1,6.5,0.4,11,0.9,14
    c2,2.9,4.6,5.4,7.9,7.3s7,3,10.5,3.2c2.7-1.1,6.3-2.8,11.4-5.8c5.5-3.2,9.3-5.9,11.7-7.8c3.4-6.9,3.1-14.8-0.1-21.3l0,0
    c-2.2-1.8-5.6-4-10.7-6.9C27.7,3,23.6,1.2,20.7,0z M34.7,31.1c-3.9,6.8-12.6,9.1-19.4,5.2s-9.1-12.6-5.2-19.4s12.6-9.1,19.4-5.2
    S38.6,24.3,34.7,31.1z"/>
</svg>
